<?xml version="1.0" encoding="utf-8"?>
<!DOCTYPE svg PUBLIC "-//W3C//DTD SVG 1.0//EN" "http://www.w3.org/TR/2001/REC-SVG-20010904/DTD/svg10.dtd">
<svg version="1.0" xmlns="http://www.w3.org/2000/svg" width="1024px" height="1024px" viewBox="0 0 1024 1024" preserveAspectRatio="xMidYMid meet">
 <g fill="#ffffff">
  <path d="M482.5 1002.4 c-43.4 -3.3 -81.1 -10.4 -119.6 -22.5 -121.5 -37.9 -226.3 -126.9 -285.4 -242.4 -8.1 -16 -18.2 -38.8 -23.6 -53.7 -9.5 -25.9 -21.9 -73.2 -21.9 -83.4 0 -2.2 0.4 -2.4 4.4 -2.4 l4.3 0 -0.8 -5 c-4.4 -28.1 -6.4 -63.3 -5.4 -99 0.4 -15.7 0.8 -31.2 0.9 -34.5 l0.1 -6 -4.4 -0.3 -4.3 -0.3 0.7 -6.7 c0.4 -3.7 1.7 -13.1 3 -20.9 28.7 -170.9 142.3 -312.7 301.1 -375.8 108.9 -43.3 228.8 -45.2 341.9 -5.5 99.9 35.1 186.3 105.3 244.8 199 20.5 32.8 40 75 52.2 113 6.8 21.3 16.5 60.9 16.5 67.5 0 2.3 -0.4 2.5 -4.3 2.5 l-4.4 0 1.3 8 c3.6 22.7 4.8 41.7 4.9 76 0 33.8 -0.7 45.4 -4.1 70.5 -1 7.4 -1.1 11.1 -0.4 11.3 0.5 0.2 0.8 0.8 0.4 1.3 -0.3 0.5 1.4 0.9 3.7 0.9 l4.1 0 -0.7 3.8 c-13.9 77.5 -45.2 149.6 -91.7 211.8 -15.1 20.2 -26.9 33.7 -45.7 52.4 -79.3 78.9 -177.6 126.2 -288.1 138.5 -13.7 1.6 -67.3 2.8 -79.5 1.9z m61.5 -129.5 c43.3 -3.9 89.1 -17.4 129.7 -38.4 68.1 -35.1 121.5 -89.3 156.2 -158.3 10.7 -21.2 22.2 -52.6 26.7 -72.8 l1.6 -7.4 4.3 0 4.3 0 1.6 -8.7 c8.4 -46.2 8.6 -99.3 0.5 -147.3 -1.2 -6.9 -2.7 -12.8 -3.3 -13.2 -0.6 -0.4 -2.6 -0.8 -4.3 -0.8 -2.7 0 -3.4 -0.4 -3.9 -2.7 -4.2 -18.7 -10.8 -39.4 -18.2 -56.6 -4.7 -10.8 -6.7 -13.3 -10 -12.3 -0.9 0.3 -7.1 9.2 -13.6 19.8 -84.6 136.7 -178.5 290.3 -233.2 381.3 -51.7 86 -68.7 113.7 -70.7 114.9 -2.4 1.4 -3.4 0.2 -15.1 -18.9 -34.6 -56.1 -55.9 -90.7 -62.6 -101.5 -4.2 -6.9 -28.8 -46.7 -54.5 -88.5 -46.2 -75.1 -79 -128.2 -132 -214 -14.9 -24.2 -33.9 -54.9 -42.1 -68.2 -8.2 -13.4 -15.4 -24.3 -16 -24.3 -2.4 0 -15.6 34.4 -20.9 54.7 -4.8 18.3 -4.4 17.3 -6.9 17.3 -3 0 -3.2 0.4 -6.1 18.4 -7.2 43.9 -7 94.6 0.5 137.4 1.1 6.2 1.8 11.7 1.5 12.3 -0.4 0.5 1.4 0.9 3.9 0.9 4.1 0 4.6 0.2 4.6 2.3 0 3.8 6.9 28.3 11.6 41.5 39.9 110.4 133.5 195.1 246.9 223.6 41 10.2 77.8 13.2 119.5 9.5z m-208.6 -526.1 c-0.4 -0.7 -6.8 -10.5 -14.1 -21.7 -9.5 -14.4 -13.2 -20.9 -12.8 -22.2 0.6 -1.8 3.3 -1.9 89.9 -1.9 l89.3 0 4.1 -13.2 c5.5 -17.6 10.2 -36.7 15.3 -62.3 2.4 -11.5 4.8 -21.3 5.3 -21.7 0.6 -0.4 2.7 -0.8 4.7 -0.8 4.2 0 3.8 1.1 5.9 -19 0.6 -5.8 1.4 -10.8 1.8 -11.2 0.4 -0.3 8.4 -0.8 17.8 -1 12.2 -0.2 17.5 -0.7 18.7 -1.6 1.6 -1.4 5.7 -12.3 5.7 -15.3 0 -1.9 -4.4 -2.9 -22.5 -5.1 -14.4 -1.7 -56.9 -1.4 -72.9 0.6 -68.3 8.7 -129.5 34.7 -184.6 78.5 -12.9 10.2 -41.9 39.3 -51.8 51.8 -11 14 -21.2 28.4 -28.9 41.1 -6.9 11.4 -13.3 23.5 -13.3 25.2 0 0.7 23.4 1 71.6 1 56.9 0 71.4 -0.3 70.8 -1.2z m493.6 -1.4 c0 -1.8 -13.3 -24.4 -21 -35.9 -31 -45.7 -71.2 -83.9 -116.7 -110.8 -27.6 -16.3 -52.9 -27.2 -85.2 -36.8 -13.8 -4 -20 -4.8 -20.2 -2.6 -0.1 0.6 -0.4 15.4 -0.8 32.7 -0.6 30.4 -0.7 31.5 -2.6 31.8 -3.9 0.7 -5.5 3.2 -5.5 8.4 0 2.8 0.4 4.8 1.1 4.8 0.6 0 4.6 2 8.8 4.6 14.4 8.5 26.7 20.7 33.9 33.4 3.9 6.9 9.2 20.8 9.2 24.1 0 1.8 1.2 1.9 39.4 1.9 34.8 0 39.5 0.2 40.7 1.6 1.5 1.9 2.5 0.1 -12.1 22.5 -12.7 19.5 -12.6 19.4 -11.1 18.5 0.6 -0.4 1.1 -0.3 1.1 0.3 0 0.6 3 1.2 6.8 1.4 12.4 0.6 134.2 0.7 134.2 0.1z"/>
 </g>
 <g fill="#000000">
  <path d="M482.5 1002.4 c-43.4 -3.3 -81.1 -10.4 -119.6 -22.5 -121.5 -37.9 -226.3 -126.9 -285.4 -242.4 -8.1 -16 -18.2 -38.8 -23.6 -53.7 -9.5 -25.9 -21.9 -73.2 -21.9 -83.4 0 -2.2 0.4 -2.4 4.5 -2.4 4.3 0 4.4 0.1 5.1 3.8 8.7 50.3 29.2 106.5 55.9 152.7 36.6 63.5 90.4 120.6 152 161.1 102.7 67.5 230.5 93 350.7 69.9 102.9 -19.8 197.4 -75.1 268 -156.8 53.4 -61.9 89.9 -136.6 107.1 -219.1 1.8 -8.6 3.6 -15.7 4 -15.6 0.4 0 2.6 0 4.8 0 l4.1 0 -0.7 3.8 c-13.9 77.5 -45.2 149.6 -91.7 211.8 -15.1 20.2 -26.9 33.7 -45.7 52.4 -79.3 78.9 -177.6 126.2 -288.1 138.5 -13.7 1.6 -67.3 2.8 -79.5 1.9z"/>
  <path d="M496.5 961.8 c-3.6 -2.8 -6.5 -9.2 -6.5 -14.4 0 -8.9 5.6 -20.4 10 -20.4 2.6 0 2.9 1.7 1.4 7.5 -1.6 5.7 -1.8 14.1 -0.5 14.9 1.7 1.1 11.1 -22.9 11.1 -28.5 0 -2.5 -0.3 -2.9 -2.2 -2.4 -12.3 2.8 -14.6 3.1 -16.6 2.4 -3.7 -1.4 -3.8 -3.7 -0.2 -7.4 10.8 -11.2 42 -12.6 42 -1.9 0 2.6 -1.1 3.5 -5.4 4.3 -2.9 0.7 -3 0.8 -4.3 9.6 -2.4 16.5 -7.7 30 -14 35.5 -4.3 3.8 -10.6 4.1 -14.8 0.8z"/>
  <path d="M551.3 962.8 c-3.7 -1.8 -4.8 -6.3 -4.7 -18.8 0.3 -17.7 3.3 -29 8.7 -32.4 1.3 -0.8 2.1 -0.6 3.4 0.7 1.5 1.5 1.9 4.2 2.3 17 l0.5 15.2 2.3 -8.5 c7.4 -27.2 11.4 -35.5 17.1 -34.8 4.9 0.6 5.6 3.9 5.6 28.3 0 23 -0.7 27.5 -4.5 31 -1.8 1.6 -2 1.6 -4.3 -0.7 -1.8 -1.8 -2.6 -4.1 -3.2 -8.6 -0.4 -3.4 -1 -6.2 -1.4 -6.2 -0.4 0 -1.3 1.9 -2 4.3 -3.5 11.6 -11.8 17.4 -19.8 13.5z"/>
  <path d="M614.2 956.8 c-2.7 -2.7 -1.3 -6.6 4.8 -13.1 7.2 -7.7 7.7 -10.3 2.3 -11.3 -9.3 -1.7 -13.3 -6 -13.3 -14.3 0 -10.4 8.5 -23.2 17.5 -26.7 8.6 -3.2 9.7 0.5 3.4 11.1 -4.8 7.8 -6.2 12.7 -4.5 14.9 0.6 0.7 3.5 2.1 6.3 3.1 11.4 3.6 13.6 13.9 5 23.2 -4.4 4.8 -17.2 14.3 -19.2 14.3 -0.6 0 -1.6 -0.5 -2.3 -1.2z"/>
  <path d="M399.6 954.5 c-1 -2.7 -0.7 -8.8 1 -17.5 0.8 -4.6 1.2 -8.6 0.7 -9 -0.7 -0.8 -4.5 -1.4 -6.8 -1.1 -0.6 0.1 -3.2 1.9 -5.9 4.1 -2.6 2.2 -5.7 4 -6.7 4 -2.5 0 -3.3 -3.7 -2 -8.6 0.8 -3 0.8 -4.1 -0.4 -5.4 -3.8 -4.2 -0.1 -9 7.1 -9 3.7 0 4.5 -0.5 8 -4.6 2 -2.6 6.5 -6.7 9.8 -9.1 5.2 -3.8 6.6 -4.4 9.5 -3.9 2.8 0.4 4 0 7.4 -3 5.1 -4.3 11.3 -6.2 13.5 -4.1 1.7 1.7 2.4 -0.1 -8.2 19.6 -6.2 11.5 -6.5 12.5 -5.1 14.2 2.7 2.9 1.5 7.1 -2.4 9.1 -2.8 1.4 -3.9 3.1 -6.7 10 -4.9 11.9 -11 18.8 -12.8 14.3z"/>
  <path d="M675 941 c-4.9 -4.9 -9.6 -19.2 -10.7 -32.3 -0.6 -7.7 -0.6 -7.7 -2.7 -6.2 -4.5 3.3 -8.8 4.7 -11.3 3.6 -5.5 -2.5 -0.7 -13.7 9.1 -21.1 12.3 -9.2 32.9 -16.5 37.1 -13 3.7 3.1 -0.4 8.2 -11.8 14.4 l-6.8 3.7 0.7 5.2 c0.3 2.9 1.4 11.9 2.5 20.1 2.2 17.3 2.3 21.2 0.6 24.6 -1.7 3.3 -4.1 3.6 -6.7 1z"/>
  <path d="M330.3 922 c-3.7 -1.5 -5.4 -5.1 -4.3 -9 2.5 -9 28.1 -37.4 38.2 -42.4 5.8 -2.9 10 -3.3 11.7 -1.2 2.2 2.6 1.1 4.1 -22.4 30.6 -4.1 4.7 -7.5 8.8 -7.5 9.1 0 0.4 2.6 0.9 5.8 1.3 13.5 1.5 13.6 7.9 0.2 11 -7.1 1.7 -18.2 2 -21.7 0.6z"/>
  <path d="M729.5 913.9 c-3.3 -2.8 -9.3 -7.5 -13.4 -10.6 l-7.3 -5.6 0.6 -4.3 c0.4 -3.3 -0.3 -6.9 -3 -15.5 -4.3 -13.6 -4.7 -19.4 -1.5 -22 3.2 -2.6 5.3 -1.2 10.5 6.9 7.5 11.6 12.3 21.3 18 36 5.9 15.1 6.3 17.1 4.4 19 -1.7 1.7 -1.8 1.7 -8.3 -3.9z"/>
  <path d="M759.9 888 c-18.6 -9.8 -25.7 -46.4 -10.6 -54.3 5.2 -2.7 9.6 -1.7 14.1 3.3 5.5 6.1 8.7 20 5.1 23 -2.4 2 -4.9 0.3 -7.8 -5.4 -4.9 -9.4 -8.2 -7.4 -5.2 3.1 2.4 8.1 4.8 12.5 9.1 16.3 l3.8 3.3 1.6 -2.1 c1 -1.2 2 -3.9 2.4 -6 1.1 -7.4 5.6 -8.2 7.7 -1.4 4.3 14.4 -8 26.7 -20.2 20.2z"/>
  <path d="M486.5 882 c-85.2 -7 -162.7 -41 -224 -98.4 -49.2 -46 -86.8 -109.1 -102.1 -171 -1.9 -7.7 -3.4 -14.6 -3.4 -15.3 0 -0.9 1.5 -1.3 4.5 -1.3 4 0 4.5 0.3 4.5 2.3 0 3.8 6.9 28.3 11.6 41.5 37.2 102.8 120.5 183.4 224.4 217 91.7 29.7 186.9 21.7 272.8 -22.8 67.2 -34.9 120.7 -89.2 155.1 -157.8 10.7 -21.2 22.2 -52.6 26.7 -72.8 l1.6 -7.4 4.4 0 c2.4 0 4.4 0.3 4.4 0.8 0 2.6 -7.6 29.6 -11 39.2 -13.6 38 -30.5 69.4 -54.5 101.5 -35.5 47.4 -82.2 85.2 -136 110.3 -36.1 16.8 -71.6 27.1 -111.3 32.3 -18.1 2.3 -50.9 3.2 -67.7 1.9z"/>
  <path d="M257.5 864.5 c-3 -6.4 -6.2 -11.8 -7 -12.1 -0.8 -0.3 -3.4 0.8 -6 2.6 -3.3 2.2 -5.4 3 -7.8 2.8 -3 -0.3 -3.2 -0.6 -3.5 -4.3 -0.2 -3.4 0.3 -4.9 3.3 -8.9 3.4 -4.3 17.3 -15.5 25.3 -20.1 2.2 -1.3 3 -2.4 2.6 -3.5 -1.6 -3.8 -1.5 -4.9 0.6 -6 4.8 -2.6 21.3 3.6 28.8 10.9 7.6 7.4 6.2 16.2 -3.3 21.1 -4.1 2.1 -6.6 2.5 -15.6 2.8 l-10.7 0.4 2 4.7 c2.7 6 2.9 14.8 0.5 18.4 -1 1.5 -2.2 2.7 -2.7 2.7 -0.5 0 -3.4 -5.2 -6.5 -11.5z m23 -27.1 c1.4 -0.3 2.5 -1 2.5 -1.6 0 -1.4 -4.7 -5.8 -6.2 -5.8 -0.7 0 -3.5 2.1 -6.3 4.6 l-5 4.5 6.3 -0.5 c3.4 -0.3 7.4 -0.9 8.7 -1.2z"/>
  <path d="M507.5 868.8 c-1.8 -2.5 -7.2 -11.2 -43 -69.3 -12.5 -20.3 -26.3 -42.6 -30.5 -49.5 -4.2 -6.9 -28.8 -46.7 -54.5 -88.5 -46.2 -75.1 -79 -128.2 -132 -214 -14.9 -24.2 -33.9 -54.9 -42.1 -68.2 -8.2 -13.4 -15.4 -24.3 -16 -24.3 -2.6 0 -16 35.7 -21.8 58 -3.1 12.3 -3.2 12.5 -6.1 12.8 -5.5 0.4 -5.9 -0.6 -3.5 -9.9 10.9 -43 30.1 -84.9 55 -119.9 30.3 -42.5 68.4 -77.9 111.4 -103.5 48.2 -28.7 97.7 -45.2 152.9 -51.1 19 -2 58 -1.5 76.7 1 100.7 13.6 188.6 65.2 249.9 146.8 23 30.7 40.5 63.5 52.7 99.1 4.3 12.4 10.5 35.7 9.8 36.8 -0.3 0.5 -2.3 0.9 -4.4 0.9 -3.5 0 -4 -0.3 -4.6 -2.7 -2.2 -10.1 -7.2 -27.5 -10.6 -37.3 -5.6 -15.8 -14.1 -34.5 -15.8 -34.5 -0.7 0 -7.6 10.1 -15.3 22.5 -72.8 117.5 -180.4 293.5 -226 369.5 -41.4 68.9 -74.7 123.8 -76.5 125.8 -2 2.3 -3.8 2.2 -5.7 -0.5z m12.4 -24.7 c8 -13.1 8.1 -13.4 6.4 -15.5 -1 -1.1 -1.9 -2.3 -2 -2.4 -0.3 -0.6 -26.7 6.9 -27.7 7.8 -0.5 0.5 2.4 6.2 6.5 12.9 4.1 6.6 7.7 11.7 8 11.3 0.4 -0.4 4.3 -6.7 8.8 -14.1z m-11.4 -17.9 l14 -3.8 0.6 -4 c0.3 -2.1 1.5 -5.5 2.6 -7.4 l2.1 -3.5 -3.4 -15 c-4.4 -19.2 -4.1 -18.5 -6.9 -18.5 -2.1 0 -6.7 -4.2 -7.7 -7 -0.2 -0.8 -6.4 0.5 -18.1 3.6 -14.9 4 -17.7 5 -17.7 6.6 0 1.8 -2.7 7.4 -5.1 10.8 -0.9 1.3 0.9 4.8 8.8 17.5 5.5 8.8 11.1 17.9 12.4 20.2 1.3 2.4 2.9 4.3 3.4 4.3 0.6 0 7.3 -1.7 15 -3.8z m48.3 -42.7 l14 -23 -2.2 -2.6 c-1.1 -1.5 -2.6 -3.4 -3.2 -4.4 -0.9 -1.7 -1.8 -1.6 -15.5 1.9 -7.9 2.1 -15.5 4.1 -16.9 4.5 -1.7 0.5 -2.6 1.7 -3.1 3.9 -0.4 1.8 -1.8 4.7 -3.3 6.6 l-2.6 3.4 3 13.4 c1.6 7.3 3.2 14.3 3.5 15.6 0.4 1.7 1.2 2.2 3.9 2.2 2 0 4 0.8 5.1 2 1.4 1.6 2.1 1.8 2.6 0.8 0.5 -0.7 7.1 -11.6 14.7 -24.3z m-64.8 -16.9 c15.4 -4.2 15.4 -4.2 16.1 -7.4 0.4 -1.8 1.9 -5 3.4 -7.2 l2.8 -4 -2.7 -12.3 c-4.5 -20.3 -4.2 -19.7 -7.7 -19.7 -3.1 0 -7.3 -3.5 -8.4 -7 -0.5 -1.7 -1.8 -1.5 -16.3 2.4 -8.6 2.2 -16.3 4.5 -16.9 4.9 -0.7 0.5 -1.3 1.7 -1.3 2.7 0 1 -1.5 3.8 -3.4 6.3 l-3.3 4.4 3.5 16.1 c3.3 14.7 3.8 16.2 5.7 16.2 2.3 0 5.6 2.6 8.1 6.5 0.9 1.4 2.4 2.5 3.3 2.4 0.9 0 8.6 -1.9 17.1 -4.3z m-37.7 -19.4 c-3.2 -15.2 -3.9 -17.2 -5.6 -17.2 -1.1 0 -3.8 -1.8 -5.9 -4.1 -5.5 -5.8 -6.8 -4.9 -6.8 4.8 l0 7.8 9.2 14.8 c8.9 14.2 9.3 14.7 11 12.9 1.8 -1.7 1.7 -2.4 -1.9 -19z m91.6 5.4 c6.9 -1.8 13.8 -3.6 15.4 -4 1.9 -0.5 2.7 -1.3 2.7 -2.9 0 -2 1.4 -4.6 5.2 -10 1.1 -1.4 0.7 -4.7 -2.2 -18.9 -3.2 -15.5 -3.8 -17.3 -5.8 -17.8 -2.5 -0.6 -5.5 -3 -6.9 -5.5 -0.9 -1.5 -2.6 -1.2 -19.3 3.2 l-18.3 4.8 -1.3 4.6 c-0.8 2.6 -2.1 5.2 -2.9 5.9 -2 1.7 -2 2.3 1.8 19.4 3.2 14.5 3.4 14.9 5.9 15 3.2 0.2 6.2 2.7 7.8 6.7 1.6 3.7 2.3 3.7 17.9 -0.5z m40.9 -42.7 c0.3 -25.7 0.2 -27 -1.5 -26.5 -1 0.3 -3.9 1 -6.5 1.7 -4 0.9 -4.8 1.5 -5.3 4.1 -0.4 1.6 -2 4.4 -3.6 6.3 l-2.9 3.3 3.7 17.1 c3.4 16.1 3.8 17.1 6 17.1 1.3 0 3.4 1.3 5 3 1.9 2.2 3 2.7 3.7 2 0.7 -0.7 1.2 -10.7 1.4 -28.1z m-148.4 4.9 c0.1 -1.4 1.5 -4.4 3.1 -6.8 l2.9 -4.2 -2.9 -14.6 c-3.1 -16.4 -3.3 -17.2 -4.6 -17.2 -0.5 0 -0.9 10.2 -0.9 23.1 0 17.1 0.3 23 1.2 22.7 0.6 -0.2 1.2 -1.6 1.2 -3z m40.9 -7.4 c14.4 -3.6 14.7 -3.7 14.7 -6.3 0 -1.5 1.4 -4.8 3 -7.4 1.7 -2.6 3 -5.5 3 -6.5 0 -1.8 -5.6 -28.7 -6.4 -30.9 -0.3 -0.6 -1.7 -1.3 -3.3 -1.5 -1.8 -0.2 -3.4 -1.4 -4.8 -3.5 -1.1 -1.9 -2.8 -3.2 -4 -3.2 -2.4 -0.1 -30.5 7.1 -32.2 8.2 -0.7 0.5 -1.3 1.8 -1.3 3 0 1.2 -1.5 4.1 -3.4 6.4 l-3.3 4.2 2.8 13.8 c1.6 7.6 3.1 14.8 3.4 16 0.3 1.5 1 2 2.3 1.6 2.3 -0.6 7.7 3.8 9.8 7.9 1 2 2 2.7 3.2 2.4 0.9 -0.3 8.3 -2.2 16.5 -4.2z m55.7 -14.8 l16.5 -4.3 0.5 -3.9 c0.3 -2.1 1.6 -5.4 3 -7.1 l2.3 -3.3 -3.4 -16.2 c-3.4 -15.8 -3.6 -16.3 -6.2 -16.6 -2.4 -0.3 -7 -4.5 -7.9 -7.3 -0.3 -0.8 -5.9 0.3 -17.8 3.3 l-17.4 4.5 -0.7 3.1 c-0.4 1.8 -1.8 4.7 -3.3 6.6 -3.1 4.1 -3.1 4.7 -0.7 16.1 1.1 5 2.4 11.6 3.1 14.7 1 5.1 1.4 5.7 3.8 6 1.7 0.2 3.6 1.7 5.7 4.5 1.6 2.3 3.7 4.2 4.5 4.2 0.8 0 8.9 -1.9 18 -4.3z m46.2 -12.2 l5.8 -1.7 0 -28.8 c0 -19.1 -0.3 -28.9 -1 -28.9 -0.6 0 -6.7 1.4 -13.5 3.1 -11.1 2.8 -12.5 3.4 -12.5 5.3 0 1.9 -1.6 4.8 -5.1 9.6 -0.8 1.2 -0.3 5.3 2.3 17 3.3 15.2 3.4 15.5 6 15.2 2.8 -0.3 7 3.3 9.4 8 1.7 3.3 1.2 3.2 8.6 1.2z m-116 -32.6 c15.8 -4 16.8 -4.4 16.8 -6.7 0 -1.2 1.2 -4.5 2.7 -7.1 l2.7 -4.8 -2.8 -12.9 c-4.4 -20.5 -4.2 -20 -7.6 -20.7 -2.1 -0.4 -3.7 -1.7 -5.1 -4.1 -1.2 -1.9 -2.6 -3.5 -3.2 -3.5 -0.7 0 -8.1 1.8 -16.5 4 -8.4 2.2 -15.5 4 -15.7 4 -0.3 0 -0.5 10.4 -0.5 23 l0 23 2.4 0 c2.5 0 6.9 4.4 8.1 8 0.3 1.1 0.9 2 1.3 2 0.4 0.1 8.2 -1.9 17.4 -4.2z m67.6 -17.4 c4.7 -1.3 5.2 -1.7 5.2 -4.3 0 -1.5 1.3 -4.6 2.9 -6.9 l3 -4 -3.7 -17 c-4.9 -22.8 -4.8 -22.8 -17.5 -3.3 -5.2 8 -10.2 15 -11.1 15.6 -2.2 1.3 -4.9 -1.8 -13.5 -15.4 -3.5 -5.5 -6.5 -10.1 -6.7 -10.1 -0.2 0 -1.1 1.5 -2 3.3 -0.9 1.7 -2.5 4.2 -3.6 5.4 -2 2.1 -2 2.2 1.1 16 1.7 7.6 3.4 14.9 3.7 16.1 0.3 1.6 1 2.2 2 1.8 2.4 -0.9 7 2.3 9.3 6.4 l2.1 3.8 11.8 -3 c6.4 -1.6 14.1 -3.6 17 -4.4z m41 -10.6 l13.2 -3.2 0 -26.1 0 -26.1 -3 -2.9 -3 -2.9 -15.3 3.9 c-19.7 5 -19.3 4.8 -20 8.3 -0.3 1.6 -1.8 4.3 -3.2 6 l-2.6 3.1 2.5 10.8 c1.3 5.9 3 13.4 3.6 16.6 1 5.2 1.4 5.7 3.7 5.7 2.8 0 9.3 6 9.3 8.6 0 1.9 -0.4 1.9 14.8 -1.8z m-123.9 -31.2 c6.9 -1.8 13.8 -3.6 15.4 -4 1.8 -0.4 2.7 -1.3 2.7 -2.7 0 -2.5 1.6 -5.6 4.2 -8.6 1.9 -2.1 1.9 -2.3 0.3 -10 -2 -9.6 -2.6 -11.2 -7.7 -19 -3.4 -5.2 -4.4 -6.1 -6.8 -6.1 -3.3 0.1 -8.6 -3.4 -9.5 -6.3 -0.4 -1.2 -1.3 -1.8 -2.3 -1.5 -0.9 0.3 -3.6 1 -5.9 1.6 l-4.3 1.1 0 29.4 c0 16.2 0.3 29.5 0.6 29.5 0.3 0 6.3 -1.5 13.3 -3.4z m110.4 -28.7 c21.3 -5.3 19.7 -4.6 19.7 -7.8 0 -1.6 1.4 -4.6 3.5 -7.3 l3.5 -4.5 -3.7 -15.1 c-2.1 -8.4 -4.1 -15.2 -4.5 -15.2 -0.3 0 -2.4 2.8 -4.6 6.3 -2.2 3.4 -9.5 14.7 -16.2 25.1 -6.7 10.4 -12.4 19.5 -12.7 20.3 -0.7 1.9 1.4 1.7 15 -1.8z m-118.1 -32.4 c3.2 -0.6 3.4 -0.9 3 -4.1 -0.2 -1.9 0 -4 0.6 -4.7 0.8 -0.9 -0.1 -3.1 -3.4 -8.2 -2.5 -3.9 -4.9 -7.1 -5.4 -7.3 -0.6 -0.2 -1 4.9 -1 12.8 0 11 0.2 13.1 1.4 12.7 0.8 -0.3 3 -0.9 4.8 -1.2z m144.8 -15.6 c0 -7.3 -0.3 -10 -1.2 -9.7 -2.9 1 -3.2 3.6 -1.3 11.7 1 4.5 2 8.1 2.2 8.1 0.1 0 0.3 -4.5 0.3 -10.1z m-251.6 -165.1 c-0.4 -0.7 -6.8 -10.5 -14.1 -21.7 -9.5 -14.4 -13.2 -20.9 -12.8 -22.2 0.6 -1.8 3.3 -1.9 89.9 -1.9 l89.3 0 4.1 -13.2 c5.5 -17.6 10.2 -36.7 15.3 -62.3 2.4 -11.5 4.8 -21.3 5.3 -21.7 0.6 -0.4 2.7 -0.8 4.7 -0.8 4.2 0 3.8 1.1 5.9 -19 0.6 -5.8 1.4 -10.8 1.8 -11.2 0.4 -0.3 8.4 -0.8 17.8 -1 12.2 -0.2 17.5 -0.7 18.7 -1.6 1.6 -1.4 5.7 -12.3 5.7 -15.3 0 -1.9 -4.4 -2.9 -22.5 -5.1 -14.4 -1.7 -56.9 -1.4 -72.9 0.6 -68.3 8.7 -129.5 34.7 -184.6 78.5 -12.9 10.2 -41.9 39.3 -51.8 51.8 -11 14 -21.2 28.4 -28.9 41.1 -6.9 11.4 -13.3 23.5 -13.3 25.2 0 0.7 23.4 1 71.6 1 56.9 0 71.4 -0.3 70.8 -1.2z m493.6 -1.4 c0 -1.8 -13.3 -24.4 -21 -35.9 -31 -45.7 -71.2 -83.9 -116.7 -110.8 -27.6 -16.3 -52.9 -27.2 -85.2 -36.8 -13.8 -4 -20 -4.8 -20.2 -2.6 -0.1 0.6 -0.4 15.4 -0.8 32.7 -0.6 30.4 -0.7 31.5 -2.6 31.8 -3.9 0.7 -5.5 3.2 -5.5 8.4 0 2.8 0.4 4.8 1.1 4.8 0.6 0 4.6 2 8.8 4.6 14.4 8.5 26.7 20.7 33.9 33.4 3.9 6.9 9.2 20.8 9.2 24.1 0 1.8 1.2 1.9 39.4 1.9 34.8 0 39.5 0.2 40.7 1.6 1.6 1.9 2.6 0 -13.1 24.1 -6.3 9.7 -11.6 18 -11.8 18.5 -0.2 0.4 32.1 0.8 71.7 0.8 39.7 0 72.1 -0.3 72.1 -0.6z"/>
  <path d="M808.6 854.9 l-12.8 -10.1 0.5 -4.6 c0.4 -3.5 -0.3 -7.3 -2.9 -15.5 -1.9 -6 -3.4 -12.9 -3.4 -15.3 0 -8.3 4.4 -12.9 8.3 -8.6 3.4 3.7 16.9 30.5 21.8 43.2 9.4 24.2 7.4 26 -11.5 10.9z"/>
  <path d="M838.2 819.6 c-2.1 -1.8 -4.2 -2.6 -6.9 -2.6 -2.1 0 -4.4 -0.5 -5.1 -1.2 -1.7 -1.7 -1.5 -5.9 0.4 -8.6 1.4 -2.1 1.3 -2.8 -1.6 -10.4 -2.5 -6.4 -3.1 -9.6 -3.1 -14.7 0.2 -11.9 0.2 -14 0 -20.6 -0.3 -7.6 1.3 -10.5 4.8 -8.6 2 1 8.7 9 17 20.2 3.5 4.7 4.6 5.6 6.6 5.2 3.7 -0.7 7.1 3 6.3 6.9 -0.5 2.5 0.2 3.9 5.4 9.9 8.2 9.5 11 15.6 8 17.4 -1.5 0.9 -8.8 -2.7 -15.9 -8 l-6.4 -4.7 -1.8 2.3 c-1.4 1.8 -1.7 3.3 -1.1 5.9 0.4 1.9 0.7 5.8 0.7 8.5 0 4.3 -0.3 5 -2.1 5.3 -1.2 0.2 -3.5 -0.8 -5.2 -2.2z"/>
  <path d="M204 820.3 c-4.8 -1.8 -9 -8.3 -9 -14 0 -12 12.2 -23.3 28.9 -26.9 12.4 -2.6 19.4 -1.1 23.3 5 2.9 4.6 2.1 14 -1.5 19.5 -3.9 5.8 -13.6 12.7 -21.4 15.1 -6.1 1.9 -16.8 2.6 -20.3 1.3z m18.6 -16.3 c7.5 -3.4 14.4 -9.4 14.4 -12.5 0 -2.3 -2.2 -4.7 -5.3 -5.8 -1.3 -0.5 -2.8 0.3 -5 2.6 -1.8 1.7 -5.3 4.6 -7.8 6.3 -5.6 3.8 -10.4 9.8 -9.5 12 0.8 2 4.9 1.2 13.2 -2.6z"/>
  <path d="M190.5 763.5 c-2.8 -0.7 -8 -2.4 -11.5 -3.8 l-6.6 -2.5 -7.9 3.4 c-11.6 4.9 -15.5 4.4 -15.5 -2 0 -4.8 7.1 -10.7 21.3 -17.6 6.7 -3.2 13.4 -6.2 14.9 -6.5 2.4 -0.6 2.6 -0.9 1.6 -3.6 -2.2 -6.3 3.1 -7.3 11.8 -2.3 6.7 3.9 16 14.4 17.4 19.5 1.7 5.9 -0.2 11.5 -4.9 14.6 -4 2.7 -12.4 3 -20.6 0.8z m10.3 -11.4 c1.2 -0.7 1.1 -1.4 -0.2 -3.9 -0.9 -1.7 -2 -3.3 -2.5 -3.6 -1 -0.7 -14.5 5.4 -13.7 6.1 1.8 1.8 14.2 2.9 16.4 1.4z"/>
  <path d="M86.7 601.2 c-1.4 -1.5 -1.7 -4.2 -1.7 -15.9 0 -11.3 -0.3 -14.2 -1.4 -14.6 -0.8 -0.3 -2.2 -1.7 -3.1 -3 -1.9 -3 -0.7 -7.2 2.4 -8.2 2.1 -0.6 2.1 -1.2 2.1 -37.3 l0 -36.8 -3 -1.1 c-4.1 -1.5 -4.2 -6.2 -0.2 -9.1 2 -1.6 2.3 -2.2 1.2 -2.5 -0.8 -0.3 -4 -1.3 -7 -2.2 -3 -0.9 -7 -2.8 -8.7 -4.1 -7.2 -5.4 -10.9 -16.9 -8.4 -26.1 1.5 -5.6 8.8 -13.5 14.8 -16.1 10.5 -4.5 25.5 -4.2 34.9 0.6 9.9 5 15.7 16.7 13.6 26.9 -2.1 10 -10.3 17.9 -20.4 19.8 -4.2 0.8 -4.7 1.7 -2 3.7 3.9 2.8 3.4 8 -0.8 9.3 -2 0.6 -2 1.5 -2 37.5 0 36.3 0 36.9 2.1 37.5 4.5 1.4 4.4 8.1 -0.1 10.5 -1.2 0.6 -2 2.1 -2 3.5 l0 2.5 11 0 11 0 0 8.5 0 8.5 -3 0 c-2.8 0 -3 -0.2 -3 -4 0 -3.8 -0.2 -4 -2.9 -4 -2.7 0 -3 0.3 -3.3 3.8 -0.3 3.7 -0.3 3.7 -5 4 -4.7 0.3 -4.8 0.4 -4.8 3.6 0 5.8 -6.6 8.9 -10.3 4.8z m-0.3 -141.7 c2.5 -1.9 4.9 -1.9 8.6 0 3.8 2 7.2 1.1 11.5 -2.9 4.4 -4.1 5.3 -9.1 3 -15.2 -2.8 -7.4 -9.2 -10.2 -15.7 -6.8 -2.9 1.5 -3.4 1.5 -6.5 0 -4.4 -2.1 -6.9 -2 -10.8 0.4 -8.9 5.5 -8.5 19.8 0.6 24.3 4.2 2 6.8 2.1 9.3 0.2z"/>
  <path d="M931.6 601.4 c-0.9 -0.8 -1.6 -3.1 -1.6 -4.9 0 -3.3 -0.1 -3.4 -4.7 -3.7 -4.8 -0.3 -4.8 -0.3 -5.1 -4 -0.3 -3.5 -0.6 -3.8 -3.3 -3.8 -2.7 0 -2.9 0.2 -2.9 4 0 3.8 -0.2 4 -3 4 l-3 0 0 -8.5 0 -8.4 10.8 -0.3 c9.8 -0.3 10.7 -0.5 11 -2.3 0.2 -1.3 -0.7 -2.6 -2.8 -3.7 -3.9 -2.2 -4.2 -6.7 -0.5 -9.6 l2.5 -2 0 -36.4 0 -36.3 -2.2 -1 c-3.5 -1.5 -3.7 -6.9 -0.4 -9.1 3.1 -2 3.3 -3.4 0.6 -3.4 -4.1 0 -12.7 -4.1 -16.2 -7.7 -4.8 -4.9 -7 -10.4 -7 -17.3 0 -10.1 5.9 -18.7 16.2 -23.4 3.6 -1.7 6.5 -2.1 15 -2.1 16.6 0 25.7 4.4 30.6 14.9 7.1 15.2 -2 32.6 -18.5 35.2 -4.5 0.7 -5.2 1.8 -2.2 3.4 4.3 2.2 3.3 8.4 -1.4 9.6 l-2.5 0.6 0 36.9 c0 31.3 0.2 36.9 1.4 36.9 2.4 0 4.6 2.9 4.6 6 0 2 -0.9 3.5 -3 5 l-3 2.1 0 14.3 c0 9.7 -0.4 14.6 -1.2 15.4 -1.7 1.7 -6.4 1.5 -8.2 -0.4z m0 -141.9 c2.5 -1.9 5.9 -1.9 9 0.1 2.3 1.5 2.8 1.5 6.9 0 5.4 -2.1 8.5 -6.6 8.5 -12.5 0 -10.2 -7.8 -16.3 -16 -12.6 -3.4 1.6 -4 1.6 -6.8 0.1 -4.8 -2.5 -8.7 -2 -12.7 1.5 -8.1 7.1 -6.2 19.9 3.5 23.8 3.6 1.4 5.3 1.3 7.6 -0.4z"/>
  <path d="M27.5 446.3 c0.3 -3.8 1.7 -13.2 3 -21 28.7 -170.9 142.3 -312.7 301.1 -375.8 108.9 -43.3 228.8 -45.2 341.9 -5.5 99.9 35.1 186.3 105.3 244.8 199 20.5 32.8 40 75 52.2 113 6.8 21.3 16.5 60.9 16.5 67.5 0 2.3 -0.4 2.5 -4.4 2.5 l-4.5 0 -1 -5.7 c-0.6 -3.2 -2.9 -13.3 -5.1 -22.6 -22 -91.9 -66.2 -171.7 -131 -236.7 -75 -75.3 -170.4 -120.4 -282.5 -133.7 -21.4 -2.5 -76.8 -2.5 -98 0 -49.9 6 -89.8 16.2 -133.4 34.4 -102.2 42.5 -186.3 120.1 -238.9 220.3 -18.1 34.7 -34 78 -42.7 117 -4.1 18.2 -7.3 36.6 -8.2 46.8 l-0.6 7.2 -5 0 -4.9 0 0.7 -6.7z"/>
  <path d="M147 307.6 c-11.3 -3.3 -19.2 -8.4 -24.6 -15.7 -4.1 -5.6 -6.4 -14 -4.4 -16.4 0.7 -0.8 1.6 -1.5 2.1 -1.5 0.4 0 4.4 2.5 8.8 5.5 4.4 3 8.2 5.5 8.5 5.5 0.2 0 -1.1 -2.9 -2.9 -6.5 -5.4 -10.8 -7.1 -24.7 -3.5 -29 1.1 -1.4 1.5 -1.4 3.2 0.2 1.1 0.9 5.1 6.8 9 13 3.8 6.3 9.7 15 13.1 19.5 12.7 16.6 13.8 18.3 13.5 20.2 -0.8 5.2 -13.1 8.1 -22.8 5.2z"/>
  <path d="M864.5 306.2 c-11.1 -3.9 -21 -11.9 -20.3 -16.3 0.5 -3.5 4.2 -3.5 13.1 0 6.8 2.7 10.4 3.1 10.8 1.2 0.1 -0.3 0.2 -3.4 0.3 -6.8 0.2 -7.2 2.2 -10.7 7.7 -13.6 7.5 -4 23 -0.5 33 7.4 4.5 3.6 4.9 5.5 1.4 7.1 -2 0.9 -4.1 0.8 -9.8 -0.5 -15 -3.6 -18.7 -1.7 -18.7 9.6 0 5.9 -0.3 7 -2.7 9.7 -3.6 3.9 -8.2 4.6 -14.8 2.2z"/>
  <path d="M818 272.5 c-1.8 -2.1 1.4 -7.9 8.7 -15.6 3.5 -3.6 6.3 -6.9 6.3 -7.2 0 -0.2 -1.5 -1.6 -3.4 -3.1 -3.4 -2.6 -3.5 -2.6 -9.1 -1.1 -5.9 1.5 -8 1.3 -8.9 -1.1 -0.8 -2.1 1.8 -6.8 4.7 -8.7 1.8 -1.2 2.3 -2.2 1.9 -4.5 -0.4 -3.2 1.8 -6.2 4.6 -6.2 0.9 0 3 0.8 4.5 1.9 2.7 1.8 3 1.8 12.5 -0.5 13.9 -3.4 23.2 -2.9 23.2 1.2 0 1.1 0.5 1.4 1.7 0.9 1 -0.3 4.5 -0.9 7.8 -1.2 5.1 -0.5 6.4 -0.2 8.5 1.5 2 1.7 2.3 2.4 1.4 3.8 -0.6 1 -7.3 5.5 -15 10.1 l-13.9 8.3 0.3 3.4 c0.3 2.8 -0.1 3.8 -2.3 5.2 -2 1.3 -3.1 1.4 -4.9 0.6 -2 -0.9 -3.2 -0.4 -8.7 3.5 -6.4 4.5 -11.9 7.6 -16.4 9.3 -1.7 0.6 -2.7 0.5 -3.5 -0.5z"/>
  <path d="M185 267.1 c-6.9 -2.2 -14.3 -8.5 -18.8 -16.1 -2.8 -4.7 -6.6 -18.6 -6.5 -23.4 0.2 -6.5 5.9 -12.3 13.1 -13.3 9.6 -1.3 20.2 6.8 27 20.6 3.1 6.3 3.7 8.7 4 15 0.3 8.3 -1.3 12.4 -6 15.5 -2.9 1.9 -9.5 2.8 -12.8 1.7z m4 -16 c0 -3.7 -7.1 -17.9 -10.7 -21.3 -2.7 -2.5 -4.3 -3.2 -7 -2.9 -1.8 0.1 -5.7 8.1 -4.1 8.1 0.7 0 5.4 4.3 10.4 9.5 5 5.2 9.6 9.5 10.2 9.5 0.7 0 1.2 -1.3 1.2 -2.9z"/>
  <path d="M225.3 222.4 c-7.6 -3.8 -15.8 -15.6 -18.8 -27.1 -3 -11.6 -1.3 -21.2 4.4 -25 7.4 -5 15.6 -1.8 20.4 7.8 4.5 9 4 20.1 -0.8 18.6 -0.5 -0.2 -2 -1.9 -3.2 -3.8 -3.9 -6.1 -6.4 -8.9 -8 -8.9 -1.2 0 -1.4 0.8 -1 3.7 1.5 8.9 11.1 23.3 15.6 23.3 2.1 0 4.1 -4.4 4.1 -8.9 0 -2.7 1.6 -5.1 3.2 -5.1 1.6 0 4.8 8.5 4.8 12.8 0 11.3 -10.4 17.7 -20.7 12.6z"/>
  <path d="M786 219.1 c-0.5 -1.1 -1 -3.3 -1 -4.9 0 -2.7 3.6 -16.1 5.5 -20.4 1.4 -3.4 -1.2 -1.8 -11 6.7 -11.3 9.8 -13.5 10.5 -13.5 4.5 0 -2.2 0.6 -5.5 1.4 -7.3 5 -12 25.9 -28.2 37.9 -29.4 5 -0.5 5.6 -0.3 6.7 1.7 1.1 2.1 0.7 3.5 -3.9 12.2 -2.8 5.4 -4.9 9.8 -4.5 9.8 0.3 0 2.5 -1.4 4.9 -3 11.5 -7.9 25.2 -11.5 28.4 -7.6 2 2.4 -0.2 5 -9.1 10.7 -11.1 7.1 -22.3 15.7 -27.8 21.4 -7 7.3 -12 9.3 -14 5.6z"/>
  <path d="M269.3 189.6 c-5.4 -2.5 -12.1 -15.2 -14.7 -28.1 -1.2 -5.6 -1.5 -6 -4.1 -6 -1.5 -0.1 -3.3 -0.9 -4.1 -1.9 -1.1 -1.6 -1.1 -2.4 0.2 -5.5 2.2 -5.2 8.3 -12.1 13.8 -15.5 5.6 -3.5 13.5 -4.6 15.5 -2.3 2 2.5 0.5 5.2 -6.5 11.3 -6 5.3 -7.7 8.5 -5.4 9.9 0.6 0.4 2.9 -1 5.2 -3 5 -4.2 11.5 -6.6 12.8 -4.5 1.1 1.8 -0.2 5.7 -5.4 16.1 -4.3 8.6 -4.5 9.3 -3.2 12.2 l1.4 3.2 2.1 -5 c2.6 -5.8 6.7 -10.5 9.3 -10.5 5.7 0 1 24.2 -5.6 28.5 -3.4 2.2 -7.8 2.6 -11.3 1.1z"/>
  <path d="M722.5 186 c-0.4 -1.2 1.2 -6.3 4.3 -13.7 2.7 -6.5 5.5 -14 6.1 -16.8 1.9 -7.8 3.2 -9.2 9.4 -9.9 4.3 -0.6 6.4 -1.6 10.8 -5.1 3 -2.5 7.2 -5.7 9.4 -7.3 9 -6.5 18.5 -7 18.5 -1 0 1 -2.4 4.4 -5.3 7.6 -2.9 3.1 -8.7 10 -13 15.2 -4.2 5.3 -11.2 12.3 -15.5 15.7 -4.2 3.4 -9.5 8 -11.7 10.3 -6.4 6.7 -11.8 8.8 -13 5z"/>
  <path d="M316.8 165.5 c-1 -2.3 -0.6 -3.7 3.7 -12 2.7 -5.2 4.6 -9.7 4.3 -10 -0.3 -0.4 -3.4 -1 -6.9 -1.5 -7.6 -1.1 -10.9 -3.4 -12.7 -8.6 -3.5 -10.2 3.6 -28.3 13.6 -34.5 2.6 -1.7 3.5 -1.9 4.7 -0.9 2.2 1.8 1.9 4.3 -1.5 12.7 -3.1 7.8 -3.9 14.3 -1.7 16.1 0.6 0.6 3.9 1.5 7.2 2.1 12 2.2 14.9 9.5 8.6 21.8 -3.5 7.1 -13.1 17.3 -16.1 17.3 -1.2 0 -2.5 -1.1 -3.2 -2.5z"/>
  <path d="M684.7 160.9 c-0.7 -2.7 1.7 -11.7 4.7 -17.7 1.3 -2.6 5.2 -8.5 8.5 -13 3.9 -5.2 5.7 -8.4 4.9 -8.6 -0.7 -0.3 -3 -1 -5.1 -1.6 -2.1 -0.7 -4.5 -2.3 -5.4 -3.7 -1.6 -2.5 -1.6 -2.6 1 -4.9 7 -6 28.5 -3.4 44 5.5 15.9 9.1 10.7 15.5 -8 10 l-7.5 -2.3 -2 2.5 c-1 1.3 -6.3 8.3 -11.7 15.4 -5.4 7.2 -11.7 14.7 -14 16.8 -4.6 4.2 -8.6 4.9 -9.4 1.6z"/>
  <path d="M630.8 137 c-4.8 -2.9 0 -8.2 9 -10.1 6.4 -1.3 9.2 -2.5 9.2 -4 0 -0.6 -1.6 -3.1 -3.5 -5.6 -2.9 -3.8 -3.5 -5.4 -3.5 -9.5 0 -4.3 0.5 -5.4 4.1 -9.3 6.1 -6.6 15.5 -10.8 24.1 -10.9 5 -0.1 7.1 0.3 8.4 1.5 2.6 2.7 0.1 5.6 -7.9 9.3 -7.5 3.4 -12.7 7.7 -12.7 10.5 0 0.9 1.6 3.6 3.5 6 6.7 8.4 5.3 15.4 -4 20.1 -4.1 2 -6.7 2.5 -15 2.8 -5.9 0.1 -10.7 -0.2 -11.7 -0.8z"/>
  <path d="M414.9 133.9 c-3.2 -6.1 -5 -15.9 -5.6 -31.6 -0.5 -14.2 -0.8 -16.3 -2.3 -16.3 -2.1 0 -4 -1.9 -4 -4.1 0 -2.5 7.4 -8.7 13.9 -11.7 7.9 -3.7 19.4 -4.3 23.3 -1.3 8.6 6.8 4.8 21.1 -9.8 37 l-6.1 6.6 -0.6 8.2 c-0.8 9.9 -2.7 15.3 -5.6 15.3 -1.1 0 -2.5 -1 -3.2 -2.1z m14.7 -46.6 c2.5 -4.6 2.7 -5.5 1.4 -6.4 -1.5 -1 -6.9 -0.4 -8.1 0.9 -0.4 0.4 -0.5 4 -0.2 8.1 0.6 7.2 0.6 7.3 2.3 5.1 1 -1.3 3 -4.7 4.6 -7.7z"/>
  <path d="M494.6 127.2 c-1.7 -2 -5.6 -15.9 -5.6 -20.4 0 -3.4 -1.1 -4.1 -5.5 -3.2 -3.2 0.6 -3.9 1.3 -6.5 7 -2.1 4.8 -3.4 6.4 -4.9 6.4 -2.7 0 -5.1 -3.7 -5.1 -8.1 0 -2.8 -0.6 -4.1 -2.6 -5.3 -2 -1.4 -2.5 -2.4 -2.2 -4.9 0.2 -2.7 1 -3.5 4.5 -5.2 3.3 -1.5 4.6 -2.8 5.4 -5.5 3.6 -11.2 12.1 -22.7 16 -21.7 1.3 0.4 2.4 -0.8 4.4 -4.9 2.8 -5.8 8.5 -11 11 -10 1.8 0.6 2 6.8 0.6 16.1 -0.5 3.3 -1.2 9.2 -1.6 13 -0.6 6.7 -0.5 7 1.7 8 1.7 0.7 2.4 1.9 2.6 4.8 0.3 3.3 -0.1 3.9 -2.7 5.5 l-3.1 1.7 0 10.3 c0 13.6 -2.7 20.5 -6.4 16.4z"/>
  <path d="M525.3 121.8 c-3.3 -1.6 -3.1 -6.1 0.4 -8.8 2.6 -2 2.7 -2.5 2.5 -9.3 -0.5 -12.6 6.9 -31.3 16.7 -41.9 4.3 -4.7 5.9 -5.8 8 -5.6 4.2 0.5 4 5.7 -0.7 16.4 -3.5 8 -9.3 24.5 -10.5 30 -0.4 2.1 -0.2 2.2 8.2 2 8 -0.1 8.6 0 8.9 2 0.4 3 -5.1 7.5 -15.1 12.4 -8.6 4.1 -13.9 5 -18.4 2.8z"/>
  <path d="M582.8 121.4 c-3.7 -2 -4.8 -4.3 -4.8 -10.3 0 -6.2 2.6 -13.2 8.4 -23.1 l4.4 -7.5 -2.5 -2.1 c-5.8 -4.6 1.9 -8.9 16.2 -8.9 6.5 0 8.9 0.5 13 2.5 5.5 2.8 8 6.3 6.4 9.2 -1.1 2.1 -8.5 2.5 -15.4 0.8 -3.5 -0.8 -4.2 -0.7 -5.7 1.1 -3.3 3.9 -2.4 4.9 4.8 4.9 7.7 0 10.4 1.2 10.4 4.5 0 2.9 -3.9 5.1 -14.7 8.4 -4.6 1.3 -7.8 2.9 -8.8 4.3 -2.7 4 -2 4.7 3.2 3.2 6.5 -2 14.2 -1.9 15 0.2 0.8 2.1 -3.6 6.3 -11.1 10.8 -4.8 2.9 -7 3.6 -11 3.6 -2.8 -0.1 -6.3 -0.7 -7.8 -1.6z"/>
 </g>
 <g fill="#248b4c">
  <path d="M425.4 721.3 c-3.6 -5.7 -43.1 -69.6 -76.4 -123.8 -41.1 -66.8 -53.4 -86.8 -70 -113.5 -19.8 -32 -46.6 -75.4 -65.3 -105.9 -6.9 -11.3 -12.4 -20.8 -12.1 -21.3 0.3 -0.4 31.9 -0.8 70.3 -0.8 l69.8 0 3.5 5.3 c33.2 50.8 82.9 127 83.8 128.6 0.8 1.5 1 35.2 1 119.6 -0.1 64.6 -0.3 117.5 -0.5 117.5 -0.3 0 -2.1 -2.6 -4.1 -5.7z"/>
 </g>
 <g fill="#413f3e">
  <path d="M505.3 573.2 c-3 -9 -6.1 -21.1 -7.3 -28.2 -3.8 -22.8 -6.6 -30.5 -16 -44.5 -9 -13.4 -10.4 -17 -10.2 -26.2 0.3 -9.6 -1.4 -15 -11.3 -36.3 -3.4 -7.4 -7.2 -16.2 -8.5 -19.5 -3.7 -10.2 -9 -30.6 -9 -35 0 -5 1.5 -7.2 16.5 -24 12.3 -13.7 16.3 -19.3 23.4 -32.6 12.9 -24.3 22 -53.9 32.9 -106.9 l1.7 -8.5 4.7 -0.9 c2.9 -0.6 5 -1.6 5.2 -2.5 0.3 -0.9 1 -6.3 1.6 -12.1 0.5 -5.8 1.3 -12 1.6 -13.7 l0.5 -3.3 14.5 0 c19.8 0 22.4 -1.6 26.9 -16.4 1.7 -5.6 2.6 -7.1 4.1 -7.1 1.8 0 1.9 1 1.6 27 -0.4 33.1 -0.4 33.3 -4.6 33.7 l-3.1 0.3 -0.3 9.1 -0.3 9.2 -3.1 1.3 c-11.7 4.8 -29.5 21.2 -38.1 35 -8.3 13.3 -13.7 32.1 -13.7 47.5 0 4.6 -0.4 6.7 -1.6 7.6 -4.7 3.7 -8.4 7.8 -8.4 9.2 0 0.9 1.6 3.4 3.5 5.5 3.5 3.9 3.6 4.1 3.3 11.3 l-0.3 7.3 -4.8 0.3 c-3.9 0.3 -4.8 0.6 -4.5 2 0.3 1.5 2 1.7 16.8 1.4 22.2 -0.4 49.2 -2.2 50.7 -3.4 3.3 -2.6 -0.4 -3.1 -19.1 -2.4 -10.5 0.4 -22.6 0.9 -26.8 1.3 l-7.8 0.6 0 -2.6 c0 -1.4 0.3 -2.8 0.8 -3.1 0.4 -0.2 9.7 -0.9 20.7 -1.6 11 -0.6 26.3 -1.8 34 -2.6 20.7 -2.1 19.3 -2.3 18.4 3.3 -0.4 2.7 -0.8 6.7 -0.8 8.9 -0.1 4 -0.2 4.2 -4.1 4.8 -4.8 0.8 -10.1 5.3 -15.6 13.1 l-3.7 5.5 -12.4 0 c-13.9 0 -54.5 1.7 -61 2.6 -3 0.3 -4.3 1 -4.3 2.1 0 1.4 3.6 1.5 33.3 0.9 18.2 -0.3 32.6 -0.3 32 0 -0.7 0.3 -1.3 1.6 -1.3 2.9 0 1.8 -0.7 2.4 -3.5 2.9 -6.2 1.2 -11.5 10 -13.1 21.9 -0.7 4.7 -2.3 4.8 -2.4 0.2 0 -3.2 -4.9 -12.7 -8.3 -16.2 -3.8 -4.1 -7.8 -4.3 -11.3 -0.8 -4.1 4.1 -6.4 10.3 -6.4 17.3 0 6 -0.1 6.3 -2.2 6 -2 -0.3 -2.3 -1 -2.6 -4.8 -0.5 -9 -2.3 -15 -5.4 -18.6 -5 -5.6 -11.2 -4 -16.7 4.3 -3.5 5.2 -3.6 7.7 -0.6 8.1 1.4 0.2 2.8 -1 4.9 -4.3 3.6 -5.7 5.9 -7.1 8.1 -4.8 2.4 2.4 3.5 5.8 3.5 11.1 0 6.3 1.7 12 3.9 13.1 1.6 0.9 1.9 3.1 2.5 19.3 0.7 20.7 1 22.5 3.8 23.4 3.9 1.2 4.3 -0.9 4.5 -21.4 0.3 -23.3 1.4 -34.4 4.2 -40.6 2.9 -6.7 5.5 -5.9 10 3.1 3.7 7.4 5.1 17.1 5.1 35.3 0 9.3 0.3 17.5 0.6 18.4 0.4 1 1.8 1.6 3.6 1.6 2.5 0 2.9 0.3 2.3 1.8 -5 12.9 -6.7 25.4 -4.5 32.1 1 3.2 1 4.2 -0.4 6.9 -1 2 -1.6 5.6 -1.6 10.4 0 6.5 -0.4 8.1 -4.5 16.3 -4.7 9.6 -7.9 20.4 -12 40.4 -1.4 6.9 -2.6 12.6 -2.8 12.7 -0.2 0.2 -2.6 -6.7 -5.4 -15.4z m-17.3 -176.1 c0 -0.5 -1.6 -2.8 -3.5 -5.2 -4.9 -5.8 -5.9 -7.9 -4.6 -9.2 0.7 -0.7 7.9 -1.4 17.4 -1.9 8.9 -0.4 25 -1.5 35.7 -2.4 10.7 -0.9 23.1 -1.9 27.5 -2.3 6.5 -0.5 8 -0.9 8.3 -2.3 0.3 -1.6 -0.6 -1.8 -7.5 -1.8 -4.3 0 -19.5 0.9 -33.8 1.9 -14.3 1.1 -30.7 2.3 -36.5 2.6 -5.8 0.4 -11.3 1.1 -12.2 1.6 -2.8 1.5 -2.3 -2 1.2 -7.4 1.7 -2.6 3 -5.4 3 -6.2 0 -2.6 -3 -1.6 -5 1.8 l-2.1 3.2 0.7 -4.5 c0.4 -2.5 1.1 -5 1.6 -5.7 0.5 -0.7 6 -1.4 13.9 -1.8 11.2 -0.7 13 -1 12.7 -2.4 -0.3 -1.3 -1.9 -1.6 -10.5 -1.6 l-10.2 0 2.5 -2.6 c1.3 -1.4 2.4 -3 2.4 -3.7 0 -2.4 -3.3 -1.1 -6.6 2.5 l-3.3 3.6 0.5 -3.9 c0.4 -2.1 1 -5.6 1.4 -7.6 0.8 -3.8 0.5 -4.8 -1.4 -4.8 -1 0 -5.6 8.7 -5.6 10.7 0 0.4 -1 1.3 -2.2 1.8 -3.1 1.3 -3.4 5.1 -0.9 8.6 1.2 1.5 2.1 4.1 2.1 5.6 l-0.1 2.8 -2.8 -3.4 c-1.5 -1.9 -3.3 -3.1 -3.9 -2.7 -1.6 1 -0.4 3.6 3.5 7.8 2.7 2.7 3.3 4 2.6 5.3 -0.9 1.5 -1.1 1.5 -2.2 0.1 -0.8 -0.9 -1.7 -1.6 -2.2 -1.6 -1.8 0 -0.8 2.5 2.2 5.6 l3.1 3.2 -2.2 3 c-2.5 3.3 -2.4 7.5 0.2 8 1.2 0.2 1.9 -0.5 2.4 -2.2 0.8 -3.4 2.6 -3.3 4.7 0.3 2.8 4.9 9.7 9.9 9.7 7.2z m46.5 -26.7 c17.6 -0.3 33 -0.7 34.3 -1 1.2 -0.2 2.2 -1.1 2.2 -1.9 0 -1.3 -3.6 -1.5 -24.7 -1.5 -30.6 0 -63.5 1.7 -64.5 3.3 -1.5 2.5 0.7 3 10.6 2.3 5.6 -0.3 24.5 -0.9 42.1 -1.2z"/>
  <path d="M537.8 447.9 c-0.3 -11.1 -0.1 -17.6 0.5 -18.1 0.6 -0.3 1.4 -3.7 1.9 -7.4 1.5 -12.6 6.1 -21.6 10.2 -20.1 1.3 0.5 1.6 2.8 1.6 13.5 0 7.9 -0.5 14.7 -1.4 17.7 -1.4 5.1 -9.9 27.4 -11.5 30.2 -0.5 1 -1 -5 -1.3 -15.8z"/>
  <path d="M571 388.1 c0 -0.4 1.5 -2.8 3.3 -5.3 8 -11.2 15.1 -13.3 26.2 -7.9 6 3 16.6 11.4 15.5 12.4 -0.9 0.8 -45 1.6 -45 0.8z"/>
  <path d="M517.2 340.3 l0.3 -8.8 4 -2.2 c5.6 -3 18.5 -4.2 56.5 -5 34.5 -0.7 37.2 -0.4 48.9 4.8 l6.4 2.9 -3.7 3.3 c-2.3 1.9 -4.1 4.6 -4.6 6.7 -0.7 3.2 -0.8 2.9 -0.9 -2.5 -0.1 -6.8 -1.1 -9.1 -3.6 -8.2 -1.3 0.6 -1.5 1.6 -0.9 6.7 0.6 5.7 0.5 6 -1.5 6 -1.9 0 -2.1 -0.5 -2.1 -6 0 -5.1 -0.4 -6.5 -2.5 -8.5 -2.7 -2.8 -5.2 -3.1 -7.9 -1.2 -1.3 1 -1.9 3.2 -2.3 8.1 -0.7 8 -2.1 7.5 -2.5 -0.9 -0.2 -4.5 -0.7 -6 -1.8 -6 -1.2 0 -1.6 1.5 -1.8 6.7 l-0.3 6.6 -6.4 0.4 -6.5 0.3 0 -6.3 c0 -4.7 -0.4 -6.4 -1.5 -6.9 -2.4 -0.8 -2.8 0.2 -3.3 7 -0.5 6.7 -1.2 7.7 -5.4 7.7 l-2.8 0 0 -7.6 c0 -6.6 -0.2 -7.5 -1.7 -7.2 -1.5 0.3 -1.8 1.6 -2.1 8.1 -0.3 6.9 -0.5 7.7 -2.2 7.7 -1.8 0 -2 -0.7 -2 -7.3 0 -7.4 -1.1 -10 -3.6 -9 -1 0.4 -1.4 2.6 -1.4 8.4 l0 7.9 -3.5 0 -3.5 0 0 -8.1 c0 -7.1 -0.2 -8 -1.7 -7.7 -1.5 0.3 -1.8 1.6 -2.1 8.6 -0.3 8 -0.4 8.2 -2.7 8.2 -2.4 0 -2.5 -0.2 -2.5 -7.9 0 -7.8 -1 -10.5 -3.2 -8.3 -0.6 0.6 -1.3 4.5 -1.6 8.6 l-0.5 7.6 -3.8 0 -3.8 0 -0.3 -8.2 c-0.2 -6.6 -0.6 -8.3 -1.8 -8.3 -1.2 0 -1.6 1.8 -1.8 8.6 l-0.3 8.7 -3.1 0.6 c-1.7 0.3 -3.5 0.6 -4 0.6 -0.5 0 -0.7 -3.9 -0.6 -8.7z"/>
  <path d="M608.3 343.2 c-0.8 -0.5 -1 -2.7 -0.6 -7 0.5 -5.1 0.9 -6.2 2.2 -6 1.3 0.3 1.6 1.6 1.6 6.7 0 6.3 -0.8 7.8 -3.2 6.3z"/>
  <path d="M521.3 314.9 c1.5 -21 10.4 -40.5 25.6 -56.2 8.4 -8.8 20.1 -16.7 24.5 -16.7 5.6 0 19.9 9.3 30.7 20 8.6 8.5 10.2 10.7 14.7 20 3.4 7 5.6 13.2 6.6 18.5 1.6 8.7 2.8 21.5 2 21.5 -0.2 0 -4.8 -1.3 -10.2 -2.9 -20.7 -6.1 -46.7 -8.1 -64.2 -4.7 -7.5 1.4 -22.8 5.8 -28.4 8.1 -1.8 0.8 -1.9 0.4 -1.3 -7.6z m52.7 -35.4 c0.7 -0.8 2 -1.5 3 -1.5 1 0 2.3 0.7 3 1.5 2.2 2.6 6.8 1.8 11.6 -2.1 3.9 -3.2 4.9 -3.6 8.5 -3.1 2.9 0.4 4.2 0.1 4.6 -0.9 0.9 -2.5 -1.7 -4.4 -6.1 -4.4 -3.7 0 -6 1 -11.7 5.2 -1.3 0.9 -2.4 0.8 -5.2 -0.5 -1.9 -0.9 -4 -1.7 -4.7 -1.7 -2.3 0 -6.9 3 -7.5 5 -1.2 3.7 2 5.5 4.5 2.5z"/>
 </g>
 <g fill="#d92827">
  <path d="M493.9 577.3 c-4.5 -7.1 -10.6 -16.4 -13.4 -20.8 -7.2 -11.1 -37.6 -57.5 -51 -78 -6.1 -9.3 -12 -18.4 -13 -20.2 -1 -1.7 -2.6 -3.4 -3.6 -3.6 -2.6 -0.7 -6.2 -6.9 -4.6 -8 0.8 -0.6 0.7 -0.7 -0.4 -0.4 -0.9 0.3 -2.3 -0.3 -3.2 -1.4 -2.6 -3 -5.8 -9.9 -4.7 -9.9 1.2 0 -0.8 -3.8 -4.1 -8.1 -1.6 -2 -1.8 -2 -1.3 -0.4 0.5 1.4 -0.1 1 -1.7 -1 -1.3 -1.6 -2.9 -3.6 -3.6 -4.3 -1.5 -1.6 -1.7 -3.6 -0.3 -2.7 0.6 0.3 1 0.1 1 -0.5 0 -0.7 -0.7 -1 -1.5 -0.6 -1.7 0.6 -3.9 -2.9 -2.9 -4.6 0.4 -0.6 0.3 -0.8 -0.4 -0.4 -1.1 0.6 -6.9 -9 -6.4 -10.7 0.1 -0.5 -0.2 -0.6 -0.7 -0.3 -0.5 0.3 -1.5 -0.1 -2.2 -1 -1 -1.3 -1 -1.7 0.2 -2.5 1 -0.8 0.8 -0.9 -0.8 -0.4 -1.7 0.5 -2.3 0.2 -2.3 -1 0 -0.8 -0.7 -1.8 -1.5 -2.1 -0.8 -0.4 -1.2 -1 -0.9 -1.5 0.3 -0.5 1 -0.6 1.6 -0.3 0.7 0.4 0.8 0.2 0.4 -0.5 -0.4 -0.6 -1.1 -0.9 -1.6 -0.6 -1.2 0.8 -4.3 -5.3 -3.4 -6.7 0.4 -0.7 0.3 -0.8 -0.4 -0.4 -0.6 0.3 -1.6 -0.2 -2.1 -1.3 -1.4 -2.6 -1.4 -3.4 0.1 -2.5 0.7 0.4 0.8 0.3 0.4 -0.4 -0.4 -0.6 -1.3 -0.9 -2 -0.6 -1.5 0.6 -3 -2.2 -2 -3.7 0.3 -0.5 0 -0.8 -0.7 -0.7 -0.6 0.2 -2.1 -1.3 -3.2 -3.2 l-2.1 -3.5 2.3 2 c1.3 1.1 -1.1 -3.4 -5.4 -10 -26 -39.9 -33.2 -51.4 -32.7 -51.9 0.3 -0.3 6.9 -0.6 14.6 -0.6 10.7 0.1 14.6 0.4 16 1.5 1.7 1.3 2.1 1.3 3.3 -0.5 1.2 -1.6 2.6 -2 7.8 -2 5.4 0 6.5 0.3 7 1.9 0.6 2 3.5 3.7 3.5 2.1 0 -0.5 0.9 -0.7 1.9 -0.5 1.4 0.3 1.8 -0.1 1.4 -1.1 -0.4 -1.1 0.7 -1.4 5.5 -1.4 5.3 0 6.1 0.3 7.7 2.6 0.9 1.5 2 2.2 2.4 1.7 0.3 -0.6 1.3 -0.9 2.2 -0.8 1 0.2 1.6 -0.4 1.5 -1.4 -0.1 -1.5 3.9 -1.6 44.7 -1.9 l44.8 -0.2 -0.6 2.2 c-0.4 1.3 -3.2 7.2 -6.3 13.1 -5.9 11.7 -13.1 22 -23.3 33.2 -8.5 9.4 -14.3 16.5 -15.8 19.3 -0.6 1.2 -2.1 2.2 -3.1 2.2 -2.5 0 -2.5 0.1 0 4.7 1.1 2.1 2 4.5 2 5.3 0 1.3 3 13.7 4.6 19.5 0.5 1.6 0 1.4 -2.3 -1 -1.5 -1.6 -2.7 -3.3 -2.5 -3.8 0.1 -0.5 -0.2 -0.6 -0.8 -0.2 -0.5 0.3 -1 0.2 -1 -0.4 0 -0.6 -0.7 -0.8 -1.5 -0.5 -0.8 0.4 -1.5 1.2 -1.5 2 0 0.7 4.9 8.7 10.8 17.7 7.4 11.2 12.6 20.4 16.5 29.4 5.6 12.8 7.3 20.1 4.3 19 -2.6 -1 -2.6 2.3 -0.2 7.6 1.3 2.9 2.9 7 3.6 9.2 0.7 2.2 4.8 9.4 9.1 16 9 13.9 11.6 20.9 15.4 42 1.3 7.7 4.2 19.6 6.4 26.5 4.1 13.3 5.6 19 4.8 19 -0.3 0 -4.2 -5.7 -8.8 -12.7z"/>
  <path d="M518.5 584.9 c1.9 -14.2 7.6 -35.5 12.4 -46.2 4.4 -9.6 5.1 -12.1 5.1 -17.4 0 -4.5 0.6 -7.2 2.1 -9.7 1.1 -1.9 2 -4.3 1.9 -5.3 -0.1 -1 -0.1 -2.1 0 -2.5 0.4 -1.3 0.7 -2.8 0.9 -3.9 0 -0.5 0.5 -0.8 0.9 -0.5 0.5 0.3 0.6 -0.8 0.4 -2.4 l-0.4 -2.8 -2.1 2.1 -2.2 2.2 -0.3 -4 c-0.7 -8.1 4.6 -22.4 12.8 -34.5 6.3 -9.4 9.2 -14.2 8 -13.5 -0.8 0.5 -0.7 0 0.1 -1.3 0.7 -1.2 1.5 -1.9 1.9 -1.7 0.3 0.2 0.6 -1 0.7 -2.6 0.3 -3.8 -1.1 -4.4 -2.7 -1.4 -0.7 1.4 -1.7 2.5 -2.2 2.5 -0.5 0 -0.6 -0.5 -0.2 -1.2 0.8 -1.3 0.9 -1.7 2 -13.3 0.7 -7.8 0.9 -8.2 8.7 -20.2 l7.9 -12.3 5.4 0 5.4 0 -4.4 6.8 c-2.4 3.7 -4 6.8 -3.6 7 0.5 0.2 0.6 1.1 0.3 2 -0.6 1.4 -0.4 1.5 0.9 0.5 0.8 -0.7 1.7 -1 2 -0.7 0.3 0.2 2.8 -3.1 5.6 -7.4 2.8 -4.4 5.8 -8.2 6.7 -8.6 2.5 -0.9 9.5 -0.7 9.5 0.3 0 0.5 -7.6 13 -16.9 27.7 -9.3 14.8 -16.6 27.2 -16.2 27.7 1.8 1.9 6.3 -2.4 12.2 -11.8 3.4 -5.5 11.2 -17.7 17.2 -27.2 l10.8 -17.2 7.2 -0.3 c6 -0.3 7.2 -0.6 7.5 -2.1 0.6 -2.9 -0.6 -6.3 -3.3 -9.5 -1.6 -2 -2.4 -3.8 -2.1 -5.4 0.3 -1.2 0.5 -2.7 0.5 -3.1 0.1 -0.5 0.7 -0.5 1.4 -0.1 0.9 0.5 0.9 0.4 -0.1 -0.7 -1 -1.1 -1.7 -1 -4.3 0.5 -3 1.7 -3.1 1.7 -6.5 -0.6 -2.6 -1.7 -3.3 -2.8 -2.8 -4.3 0.7 -2.4 0.7 -5.5 0 -6.2 -0.3 -0.3 -1.9 0.8 -3.5 2.5 -2.5 2.5 -3.6 2.9 -5.8 2.3 -2.4 -0.6 -2.8 -1.3 -3.1 -4.7 -0.2 -3 0.5 -5.2 3.1 -9.4 l3.4 -5.5 5.4 0.3 c2.9 0.2 5.5 0.5 5.7 0.7 0.3 0.2 -1 2.7 -2.7 5.5 -3.6 5.9 -3.9 7.4 -1.1 6.5 1.6 -0.5 1.9 -0.3 1.4 1.2 -0.5 1.4 -0.4 1.5 0.4 0.3 0.6 -0.8 0.8 -1.8 0.6 -2.2 -0.3 -0.4 -0.1 -0.8 0.5 -0.8 0.5 0 2.3 -2.2 4 -5 l3.1 -5 6.1 0 6.1 0 -1.5 2.3 c-1.4 2.2 -1.4 2.3 1.9 1.9 2.9 -0.4 3.9 -1.4 8.4 -8.4 2.8 -4.4 4.6 -7.7 4 -7.3 -0.6 0.3 -0.7 0 -0.4 -0.9 0.3 -0.9 1 -1.3 1.5 -1 0.5 0.3 0.6 -0.3 0.2 -1.2 -0.4 -1 -0.2 -1.5 0.3 -1.1 0.5 0.3 1 -0.2 1 -1.1 0.1 -0.9 0.4 -2.4 0.8 -3.3 0.5 -1.1 0.2 -1.9 -0.8 -2.2 -0.9 -0.4 -1.5 -0.3 -1.5 0.1 0.3 1.8 -0.2 3.5 -0.8 2.9 -0.3 -0.4 -1.1 0.1 -1.8 0.9 -1 1.5 -1.4 1.4 -3.6 -0.7 -1.4 -1.3 -3.3 -2.8 -4.2 -3.4 -1.5 -0.9 -1.1 -1.9 3.4 -8.8 5.5 -8.5 7.7 -10 14.6 -9.5 l4.3 0.3 -3 4.5 c-3.4 5.1 -3.7 7.2 -1.3 9.1 1.1 1 1.4 1 0.9 0.2 -0.4 -0.7 -0.2 -1.3 0.3 -1.3 0.6 0 2.9 -2.9 5.2 -6.5 l4.1 -6.5 18.9 0 c10.4 0 18.9 0.2 18.9 0.4 0 0.4 -30.9 49.7 -43.7 69.6 -37.4 58.4 -53.5 83.2 -73.2 113 -9.7 14.6 -21.3 32.1 -25.8 39 -9.4 14.6 -37.4 56.9 -38.6 58.5 -0.5 0.5 -0.6 -1.1 -0.2 -3.6z"/>
 </g>
 <g fill="#ce2a29">
  <path d="M497 582.1 c-2.8 -4.4 -5 -8.4 -4.7 -8.8 0.3 -0.5 0.2 -2.7 -0.3 -5.1 -0.6 -3.5 -0.5 -4 0.6 -3.1 0.8 0.6 1.4 1.8 1.4 2.6 0 1.2 0.3 1.3 1.3 0.4 1.1 -0.9 1.9 0.6 4 7.7 3.2 10.5 4.1 14.2 3.4 14.2 -0.2 0 -2.8 -3.6 -5.7 -7.9z"/>
  <path d="M541 500.1 c0.5 -1.1 1 -2.9 1 -4 0 -2.1 0 -2.1 -2.2 0.2 l-2.3 2.2 -0.3 -4 c-0.7 -8.1 4.6 -22.4 12.8 -34.5 6.3 -9.4 9.2 -14.2 8 -13.5 -0.8 0.5 -0.7 0 0.1 -1.3 0.7 -1.2 1.5 -1.9 1.9 -1.7 0.3 0.2 0.6 -1 0.7 -2.6 0.3 -3.8 -1.1 -4.4 -2.7 -1.4 -0.7 1.4 -1.7 2.5 -2.2 2.5 -0.5 0 -0.6 -0.5 -0.2 -1.2 0.8 -1.3 0.9 -1.7 2 -13.3 0.7 -7.8 0.9 -8.2 8.7 -20.2 l7.9 -12.3 5.4 0 5.4 0 -4.4 6.8 c-2.4 3.7 -4 6.8 -3.6 7 0.5 0.2 0.6 1.1 0.3 2 -0.6 1.4 -0.4 1.5 0.9 0.5 0.8 -0.7 1.7 -1 2 -0.7 0.3 0.2 2.8 -3.1 5.6 -7.4 2.8 -4.4 5.8 -8.2 6.7 -8.6 2.5 -0.9 9.5 -0.7 9.5 0.3 0 0.5 -7.6 13 -16.9 27.7 -9.4 15.1 -16.5 27.3 -16 27.8 0.5 0.5 1.5 0.4 2.4 -0.4 0.8 -0.7 1.8 -1.1 2.1 -0.8 0.7 0.8 -32 52.8 -33.2 52.8 -0.3 0 0 -0.9 0.6 -1.9z"/>
  <path d="M454.8 464.8 c-4.2 -6.2 -14.7 -21.9 -23.5 -34.8 -8.7 -12.9 -24.8 -36.8 -35.8 -53 -10.9 -16.2 -25.4 -37.7 -32.3 -47.8 -6.8 -10.1 -12.1 -18.6 -11.8 -18.9 0.3 -0.4 0.6 -0.2 0.6 0.3 0 0.4 0.7 -0.2 1.6 -1.4 1.3 -1.9 2.4 -2.2 7.9 -2.2 5.4 0 6.5 0.3 7 1.9 0.6 2 3.5 3.7 3.5 2.2 0 -2.5 3.9 0.1 7 4.7 3.3 4.8 7.3 9.4 5.6 6.5 -0.4 -0.8 -0.1 -1.3 0.9 -1.3 1.3 0 1.4 -0.4 0.4 -2.2 -0.7 -1.3 -1.8 -2.7 -2.5 -3.1 -1.5 -0.9 -1.9 -3.7 -0.6 -3.7 0.5 0 2.1 1.7 3.6 3.8 l2.8 3.7 -0.4 -3.3 c-0.3 -2.2 0 -3.2 0.9 -3.2 0.7 0 1.3 -0.4 1.3 -0.9 0 -0.5 0.8 -0.8 1.8 -0.7 1.6 0.2 15.9 20.9 34.8 50.5 10.2 16 10.3 16.1 7.5 16.1 -2.6 0 -2.6 0.1 -0.1 4.7 1.1 2.1 2 4.5 2 5.3 0 1.3 3 13.7 4.6 19.5 0.5 1.6 0 1.4 -2.3 -1 -1.5 -1.6 -2.7 -3.3 -2.5 -3.8 0.1 -0.5 -0.2 -0.6 -0.8 -0.2 -0.5 0.3 -1 0.2 -1 -0.4 0 -0.6 -0.7 -0.8 -1.5 -0.5 -0.8 0.4 -1.5 1.2 -1.5 2 0 0.7 4.9 8.7 10.8 17.7 7.4 11.2 12.6 20.4 16.5 29.4 5.6 12.8 7.3 20.1 4.3 19 -1.9 -0.8 -2.9 2 -1.6 4.4 2.5 4.6 -0.2 1.1 -7.2 -9.3z m-94.8 -153.2 c0 -0.8 0.6 -1.6 1.3 -1.9 0.8 -0.3 0.6 -0.7 -0.5 -1.2 -1 -0.4 -2.5 -0.5 -3.3 -0.1 -1.3 0.5 -1.3 0.9 -0.3 2.6 1.5 2.3 2.8 2.6 2.8 0.6z"/>
  <path d="M558 403.7 l0 -7.6 4.5 -0.7 c2.5 -0.3 4.8 -0.4 5.1 -0.1 0.3 0.2 -1.8 4 -4.5 8.2 l-5.1 7.8 0 -7.6z"/>
  <path d="M619 374.3 c1.3 -2.8 0 -3 -3.5 -0.7 -2.4 1.6 -2.7 1.5 -6 -0.7 -2.7 -1.8 -3.4 -2.9 -2.9 -4.4 0.7 -2.4 0.7 -5.5 0 -6.2 -0.3 -0.3 -1.9 0.8 -3.5 2.5 -2.5 2.5 -3.6 2.9 -5.8 2.3 -2.4 -0.6 -2.8 -1.3 -3.1 -4.9 -0.2 -2.6 0.1 -4.2 0.8 -4.2 0.6 0 0.8 -0.4 0.5 -1 -0.9 -1.5 0.1 -1.2 1.8 0.5 1.3 1.3 1.6 1.3 2.7 0 0.9 -1.1 0.9 -1.5 0.1 -1.5 -0.6 0 -1.1 -0.5 -1.1 -1.1 0 -0.7 1 -0.9 2.6 -0.5 1.4 0.4 3.1 0.2 3.8 -0.3 0.9 -0.8 1.2 -0.1 0.9 3 -0.3 3.6 -0.1 4 1.7 3.4 1.6 -0.5 1.9 -0.3 1.4 1.2 -0.5 1.4 -0.4 1.5 0.4 0.3 0.6 -0.8 0.8 -1.8 0.6 -2.2 -0.3 -0.4 -0.1 -0.8 0.5 -0.8 0.5 0 2.3 -2.2 4 -5 l3.1 -5 6.1 0 6.1 0 -1.5 2.3 c-1.5 2.3 -1.4 2.3 1.4 1.9 1.6 -0.2 2.9 -0.1 2.9 0.2 0 0.4 -2.4 4.4 -5.2 8.9 -5.9 9.2 -10.6 15.6 -8.8 12z"/>
  <path d="M630.4 344 c0.7 -4.6 1.8 -6 4.9 -6 1.5 0 1.3 0.7 -1.4 4.8 -4.3 6.3 -4.3 6.3 -3.5 1.2z"/>
  <path d="M644.5 333.3 c2.9 -6.2 2.9 -5.9 1 -6.7 -0.8 -0.3 -1.4 -0.2 -1.4 0.2 0.3 1.8 -0.2 3.5 -0.8 2.9 -0.3 -0.4 -1.1 0.1 -1.8 0.9 -1 1.5 -1.4 1.4 -3.6 -0.7 -1.4 -1.3 -3.3 -2.8 -4.2 -3.4 -1.5 -0.9 -1.1 -1.9 3.4 -8.8 5.5 -8.5 7.7 -10 14.6 -9.5 l4.3 0.3 -3 4.5 c-3 4.4 -3.6 8.7 -1.3 8.3 0.8 -0.2 1 0.4 0.6 1.5 -0.6 1.6 -4.8 8.4 -6.6 10.7 -0.4 0.6 -1.4 1.9 -2.3 3 -0.8 1.1 -0.3 -0.3 1.1 -3.2z"/>
 </g>
 <g fill="#383737">
  <path d="M502.7 424.3 c-0.4 -0.3 -0.7 -2.6 -0.7 -4.9 0 -12.2 -5.3 -21.9 -11.6 -21.2 -2.1 0.2 -3 0 -2.7 -0.8 0.2 -0.6 -1.2 -3 -3.2 -5.4 -4.9 -5.9 -5.9 -8 -4.6 -9.3 0.7 -0.7 7.9 -1.4 17.4 -1.9 8.9 -0.4 25.2 -1.5 36.2 -2.5 24.4 -2.1 33.7 -2.3 34.3 -0.5 0.2 0.6 0.9 0.9 1.5 0.5 0.6 -0.4 0.2 0.9 -1 2.8 l-2.2 3.4 -8.8 0.2 c-19.2 0.5 -63 2.4 -66 3 -2 0.3 -3.3 1.1 -3.3 2 0 1.3 4.1 1.4 33.3 0.9 18.2 -0.3 32.6 -0.3 32 0 -0.7 0.3 -1.3 1.7 -1.3 3 0 1.6 -0.6 2.4 -1.7 2.5 -1 0.1 -3 0.2 -4.6 0.3 -1.5 0.1 -3.7 1.2 -5 2.5 -1.9 2 -1.9 2.3 -0.4 1.7 1.8 -0.6 1.8 -0.4 -0.1 2.7 -1.1 1.7 -2.5 4.9 -3.2 7 -0.6 2 -1.6 3.7 -2.1 3.7 -0.5 0 -0.9 1.7 -1 3.8 l-0.1 3.7 -0.9 -3.8 c-2.2 -9.4 -9.2 -18.7 -14.1 -18.7 -6.1 0 -11.7 9.5 -11.8 19.8 0 5.3 -0.3 6.2 -1.8 6.2 -1 0 -2.2 -0.3 -2.5 -0.7z"/>
  <path d="M578.5 383.8 c0.1 -1.8 -0.3 -3.6 -0.9 -4 -0.7 -0.5 -0.1 -1.6 1.9 -3.3 3.9 -3.3 6.8 -4.5 11.1 -4.5 3.9 0 13.7 3.8 12.9 5 -0.2 0.4 0.4 1.5 1.5 2.5 1.1 1 1.7 2.1 1.5 2.6 -0.3 0.4 0.2 1.5 1.1 2.3 1.4 1.4 1.7 1.4 3.1 0.1 1.8 -1.9 3.9 -0.9 2.2 1.1 -0.9 1.1 -4.7 1.4 -17.9 1.4 l-16.8 0 0.3 -3.2z"/>
  <path d="M589.7 258.3 c-0.9 -0.2 -1.5 -0.8 -1.3 -1.2 0.3 -0.4 -0.1 -0.8 -0.9 -0.8 -0.8 0 -1.2 0.4 -0.9 0.9 0.3 0.4 0 0.8 -0.5 0.8 -1 0 -1.5 -1.3 -1.3 -3.1 0.1 -0.3 -0.5 -0.6 -1.3 -0.6 -0.8 0 -1.1 0.5 -0.8 1 0.4 0.6 -0.1 0.8 -1.1 0.4 -1.4 -0.5 -1.7 -0.3 -1.2 0.8 0.3 0.8 0.1 1.5 -0.3 1.5 -0.5 0 -1.2 -0.6 -1.4 -1.2 -0.4 -1 -0.6 -1 -0.6 0 -0.1 0.6 -0.5 1.2 -1 1.2 -0.5 0 -0.7 -1 -0.4 -2.2 0.6 -2.3 0.5 -2.3 -1.6 0.2 -2.1 2.4 -2.3 2.4 -3.6 0.7 -1.2 -1.7 -1.4 -1.7 -3 -0.1 -1.6 1.6 -1.8 1.6 -2.6 0.2 -0.5 -1 -1.7 -1.4 -2.9 -1.1 -1.2 0.3 -2 0 -2 -0.7 0 -0.7 -0.9 -0.3 -2 1 -2.3 2.7 -4.8 1.5 -3.5 -1.7 0.5 -1 0.7 -2.4 0.6 -3 -0.3 -2 11.8 -9.3 15.4 -9.3 3.9 0 20.7 9.8 21.1 12.3 0.1 0.9 -0.2 1.7 -0.7 1.7 -0.4 0 -0.6 0.7 -0.3 1.5 0.4 0.8 0.5 1.4 0.3 1.4 -0.2 -0.1 -1.2 -0.3 -2.2 -0.6z"/>
 </g>
 <g fill="#090101">
  <path d="M541 500.1 c0.5 -1.1 1 -3 1 -4.2 0 -2.2 0 -2.2 -1.6 -0.3 -3.5 4.2 -0.2 -1.7 7.9 -14.6 4.7 -7.4 11.1 -17.5 14.1 -22.3 3.2 -5 6 -8.5 6.6 -8.2 0.6 0.4 1.8 0.1 2.6 -0.6 0.8 -0.6 1.7 -1 2 -0.7 0.7 0.8 -32 52.8 -33.2 52.8 -0.3 0 0 -0.9 0.6 -1.9z"/>
  <path d="M454.8 464.8 c-4.2 -6.2 -14.7 -21.9 -23.5 -34.8 -8.7 -12.9 -24.8 -36.8 -35.8 -53 -10.9 -16.2 -25.4 -37.7 -32.3 -47.8 -6.8 -10.1 -12.1 -18.6 -11.8 -18.9 0.3 -0.4 0.6 -0.2 0.6 0.3 0 0.4 0.7 -0.2 1.6 -1.4 1.3 -1.9 2.3 -2.2 8.2 -2 5.9 0.1 6.1 0.2 1.7 0.5 -2.7 0.2 -5.6 0.6 -6.3 0.8 -1.3 0.5 21.6 35.1 93.3 141 13.9 20.6 14.2 21.1 12.8 20.2 -1.6 -1 -2.5 2.1 -1.3 4.4 2.5 4.6 -0.2 1.1 -7.2 -9.3z"/>
  <path d="M410.1 452.4 c-1.2 -1.5 -2.1 -3 -2.1 -3.3 0 -0.3 -1.1 -1.8 -2.4 -3.2 -3.4 -3.7 -7 -10.9 -5.4 -10.9 1.3 0 7.6 9.7 7 10.6 -0.2 0.3 0.6 1.3 1.7 2.2 1.1 0.9 2.1 2.4 2.3 3.2 0.2 0.8 1 2 1.8 2.7 0.9 0.8 1.1 1.2 0.3 1.3 -0.6 0 -2.1 -1.2 -3.2 -2.6z"/>
  <path d="M559.1 443.5 c1.3 -2.1 1.8 -4.2 1.4 -5.3 -0.5 -1.5 -0.9 -1.3 -2.3 1.1 -0.9 1.5 -2 2.7 -2.4 2.7 -0.4 0 0.6 -2.1 2.2 -4.7 12.8 -20.4 17.7 -27.7 18.8 -28.1 0.8 -0.2 1 0.2 0.5 1.5 -0.6 1.6 -0.5 1.6 1 0.4 1.2 -1 1.7 -1 1.7 -0.1 0 1.1 -8.5 15.3 -17.6 29.3 -4.6 7 -6.8 9.2 -3.3 3.2z"/>
  <path d="M394 427.4 c0 -0.5 -1 -2 -2.3 -3.4 -1.3 -1.4 -4.7 -6.6 -7.6 -11.5 -2.9 -5 -6.2 -10 -7.4 -11.2 -1.1 -1.3 -1.8 -2.6 -1.4 -2.9 0.9 -0.9 3.8 1.6 3.1 2.7 -0.3 0.5 -0.1 0.9 0.4 0.9 1.1 0 4 4.1 4.4 6.2 0.2 0.7 1 1.8 1.8 2.5 0.8 0.7 1.2 1.3 0.8 1.3 -0.5 0 0.1 0.9 1.2 2 1.2 1.2 1.8 2.5 1.5 3 -0.3 0.5 0.4 1.4 1.6 2 2.1 1.2 5.5 7.8 4.5 8.8 -0.3 0.3 -0.6 0.1 -0.6 -0.4z"/>
  <path d="M435.7 403 c-1.3 -1.9 -1.6 -1.9 -2.9 -0.6 -1.3 1.3 -5.1 -4 -31.9 -44.1 -16.7 -25 -30.6 -46 -30.8 -46.5 -0.2 -0.6 0.1 -0.8 0.8 -0.4 0.6 0.4 1.1 0.3 1.1 -0.3 0 -0.5 0.8 -0.8 1.7 -0.7 2 0.3 65.6 94.6 63.8 94.6 -0.2 0 -1 -0.9 -1.8 -2z"/>
  <path d="M373 396.5 c0 -0.7 -0.7 -1.8 -1.6 -2.3 -1.1 -0.6 -1.3 -1.2 -0.6 -1.6 1.4 -0.8 5.5 3.1 4.7 4.4 -0.9 1.5 -2.5 1.2 -2.5 -0.5z"/>
  <path d="M366.9 386.1 c-1.8 -3.1 -3.4 -5.8 -3.8 -6.1 -1 -0.8 -4.6 -6.3 -6.1 -9 -1.2 -2.4 -1.1 -2.4 1.8 0.4 1.7 1.6 2.9 3.2 2.7 3.6 -0.3 0.5 0.2 1 1 1.4 0.8 0.3 1.5 1.2 1.5 1.9 0 0.8 0.9 2.2 2 3.2 1.1 1 1.7 2.1 1.5 2.5 -0.3 0.4 0.1 1 0.8 1.3 0.6 0.3 2 1.8 2.9 3.4 1.4 2.5 1.5 3 0.3 3 -0.8 0 -2.9 -2.5 -4.6 -5.6z"/>
  <path d="M424.6 366.3 c-4.1 -6.5 -13.6 -21 -21 -32.2 -7.4 -11.2 -13.2 -21 -12.9 -21.7 1.2 -3.2 4.7 0.5 16.1 17.7 13.9 20.9 29.2 44.6 29.9 46.6 0.3 0.9 -0.3 1.3 -2 1.3 -2.1 0 -3.7 -1.9 -10.1 -11.7z"/>
  <path d="M619 374.3 c0.8 -1.8 0.8 -2.3 -0.3 -2.3 -0.7 0 -1.8 0.5 -2.5 1.2 -2.7 2.7 -0.8 -1 5.3 -10.3 5.3 -8.2 6.9 -9.9 9 -9.9 1.4 0 2.5 0.2 2.5 0.5 0 0.3 -2.4 4.3 -5.2 8.8 -5.9 9.2 -10.6 15.6 -8.8 12z"/>
  <path d="M603.5 363.2 c0.9 -1.8 2 -3 2.5 -2.7 0.5 0.3 1.8 0.1 2.9 -0.4 1.9 -1 1.9 -1 0.5 1.9 -1.8 3.6 -3.4 4.8 -2.7 2 0.7 -2.7 -1.1 -2.5 -3.1 0.3 -1.5 2.1 -1.5 2 -0.1 -1.1z"/>
  <path d="M644.5 333.2 c2.6 -5.4 2.6 -8.4 -0.1 -4.8 -2.5 3.5 -1.5 0.7 1.8 -4.5 2.5 -4.2 3.3 -4.8 4 -3.5 0.5 0.9 1.3 1.4 1.9 1.1 1.8 -1.2 -2.7 7.2 -6.4 12 -0.4 0.6 -1.4 1.9 -2.3 3 -0.8 1.1 -0.3 -0.4 1.1 -3.3z"/>
 </g>
 <g fill="#000401">
 </g>
</svg>